<svg width="20" height="20" viewBox="0 0 40 40" fill="none" xmlns="http://www.w3.org/2000/svg">
<path d="M17.3333 2.66669C9.23329 2.66669 2.66663 9.23335 2.66663 17.3334C2.66663 25.4334 9.23329 32 17.3333 32C25.4333 32 32 25.4334 32 17.3334C32 9.23335 25.4333 2.66669 17.3333 2.66669ZM17.3333 26.6667C12.1786 26.6667 7.99996 22.488 7.99996 17.3334C7.99996 12.1787 12.1786 8.00002 17.3333 8.00002C22.488 8.00002 26.6666 12.1787 26.6666 17.3334C26.6666 22.488 22.488 26.6667 17.3333 26.6667Z" fill="#A0A0A0"/>
<path d="M37.2194 33.448L31.3287 27.5566C30.2727 28.9993 29 30.272 27.5574 31.328L33.448 37.2186C33.9307 37.702 34.5974 38 35.3334 38C36.806 38 38 36.806 38 35.3333C38 34.5973 37.7014 33.9306 37.2194 33.448V33.448Z" fill="#A0A0A0"/>
</svg>
