<svg width="40" height="40" viewBox="0 0 30 30" fill="none" xmlns="http://www.w3.org/2000/svg">
<path fill-rule="evenodd" clip-rule="evenodd" d="M15.0027 5C20.1726 5.00248 24.8163 8.6079 27.425 14.6422C27.525 14.8708 27.525 15.1292 27.425 15.3591C27.115 16.0759 26.77 16.7729 26.3975 17.4264C26.1488 17.8662 25.5938 18.019 25.1513 17.773C24.7113 17.5245 24.5563 16.9717 24.8038 16.5344C25.0813 16.0461 25.3438 15.5305 25.585 15C23.2513 9.87017 19.3164 6.8201 15.0002 6.81886C10.6827 6.8201 6.74776 9.87017 4.41404 15C6.74776 20.1298 10.6827 23.1811 15.0002 23.1811C17.5101 23.1811 19.9313 22.1425 22.0026 20.1758C22.3688 19.8317 22.9463 19.8441 23.2951 20.2069C23.645 20.5684 23.63 21.1436 23.2651 21.4902C20.8488 23.7849 17.9926 24.9988 15.0027 25H14.9977H14.9964C9.82772 24.9975 5.18403 21.3933 2.57406 15.3591C2.47531 15.1305 2.47531 14.8708 2.57406 14.6422C5.18403 8.6079 9.82772 5.00248 14.9964 5H15.0002H15.0027ZM13.4358 17.5986C13.9058 17.8794 14.447 18.0272 14.9995 18.0272C16.6783 18.0272 18.0445 16.6693 18.0445 14.9995C18.0445 13.3322 16.6783 11.9743 14.9995 11.9743C13.3208 11.9743 11.9546 13.3322 11.9546 14.9995C11.9546 15.5027 11.5446 15.9089 11.0396 15.9089C10.5346 15.9089 10.1258 15.5027 10.1258 14.9995C10.1258 12.3284 12.3121 10.1554 14.9995 10.1554C17.687 10.1554 19.8732 12.3284 19.8732 14.9995C19.8732 17.6719 17.687 19.8448 14.9995 19.8448C14.1145 19.8448 13.2483 19.6063 12.4946 19.1553C12.0608 18.8981 11.9208 18.339 12.1821 17.9079C12.4421 17.4793 13.0046 17.3364 13.4358 17.5986Z" fill="#E8EAED"/>
</svg>
