<svg width="146" height="146" viewBox="0 0 146 146" fill="none" xmlns="http://www.w3.org/2000/svg">
<rect x="53.7545" y="92.9091" width="39.1545" height="2.65455" rx="1.32727" fill="white"/>
<rect x="63.7091" y="100.209" width="20.5727" height="2.65455" rx="1.32727" fill="white"/>
<path fill-rule="evenodd" clip-rule="evenodd" d="M43.1364 84.9455C42.4033 84.9455 41.8091 85.5397 41.8091 86.2727C41.8091 87.0058 42.4033 87.6 43.1364 87.6H79.6364C80.3694 87.6 80.9636 87.0058 80.9636 86.2727C80.9636 85.5397 80.3694 84.9455 79.6364 84.9455H43.1364ZM84.2818 84.9456C83.5488 84.9456 82.9545 85.5398 82.9545 86.2729C82.9545 87.0059 83.5488 87.6001 84.2818 87.6001H102.864C103.597 87.6001 104.191 87.0059 104.191 86.2729C104.191 85.5398 103.597 84.9456 102.864 84.9456H84.2818Z" fill="white"/>
<mask id="path-4-inside-1_785_52849" fill="white">
<path fill-rule="evenodd" clip-rule="evenodd" d="M89.3886 80.3002C90.6301 77.8288 91.329 75.0378 91.329 72.0836C91.329 61.9608 83.1229 53.7546 73 53.7546C62.8772 53.7546 54.671 61.9608 54.671 72.0836C54.671 75.0378 55.3699 77.8288 56.6114 80.3002H89.3886Z"/>
</mask>
<path d="M89.3886 80.3002V84.3002H91.8556L92.963 82.0958L89.3886 80.3002ZM56.6114 80.3002L53.0371 82.0958L54.1445 84.3002H56.6114V80.3002ZM87.329 72.0836C87.329 74.4003 86.7822 76.5778 85.8143 78.5047L92.963 82.0958C94.478 79.0799 95.329 75.6754 95.329 72.0836H87.329ZM73 57.7546C80.9137 57.7546 87.329 64.1699 87.329 72.0836H95.329C95.329 59.7517 85.332 49.7546 73 49.7546V57.7546ZM58.671 72.0836C58.671 64.1699 65.0863 57.7546 73 57.7546V49.7546C60.6681 49.7546 50.671 59.7517 50.671 72.0836H58.671ZM60.1858 78.5047C59.2178 76.5778 58.671 74.4003 58.671 72.0836H50.671C50.671 75.6754 51.522 79.0799 53.0371 82.0958L60.1858 78.5047ZM56.6114 84.3002H89.3886V76.3002H56.6114V84.3002Z" fill="#FFD600" mask="url(#path-4-inside-1_785_52849)"/>
<rect x="51.1" y="77.6455" width="43.1364" height="2.65455" rx="1.32727" fill="#FFD600"/>
<rect x="74.3273" y="42.4728" width="7.3" height="2.65455" rx="1.32727" transform="rotate(90 74.3273 42.4728)" fill="#FFD600"/>
<rect x="57.0449" y="48.5317" width="7.3" height="2.65455" rx="1.32727" transform="rotate(45 57.0449 48.5317)" fill="#FFD600"/>
<rect x="83.7932" y="53.6937" width="7.3" height="2.65455" rx="1.32727" transform="rotate(-45 83.7932 53.6937)" fill="#FFD600"/>
<rect x="45.1273" y="65.0364" width="7.3" height="2.65455" rx="1.32727" fill="#FFD600"/>
<rect x="93.5728" y="65.0364" width="7.3" height="2.65455" rx="1.32727" fill="#FFD600"/>
</svg>
