<svg width="30" height="30" viewBox="0 0 30 30" fill="none" xmlns="http://www.w3.org/2000/svg">
<path fill-rule="evenodd" clip-rule="evenodd" d="M14.0625 2.8125C13.3166 2.8125 12.6012 3.10882 12.0738 3.63626C11.5463 4.16371 11.25 4.87908 11.25 5.625V17.2266H10.3125L10.8894 17.9655C10.0431 18.6263 9.42418 19.5347 9.11897 20.5641C8.81376 21.5934 8.8375 22.6924 9.18688 23.7077C9.53625 24.7229 10.1938 25.6038 11.0679 26.2273C11.9419 26.8509 12.9888 27.1861 14.0625 27.1861C15.1362 27.1861 16.1831 26.8509 17.0571 26.2273C17.9312 25.6038 18.5887 24.7229 18.9381 23.7077C19.2875 22.6924 19.3112 21.5934 19.006 20.5641C18.7008 19.5347 18.0819 18.6263 17.2356 17.9655C17.008 17.7879 16.875 17.5153 16.875 17.2266V5.625C16.875 4.87908 16.5787 4.16371 16.0512 3.63626C15.5238 3.10882 14.8084 2.8125 14.0625 2.8125ZM9.375 16.789V5.625C9.375 4.3818 9.86886 3.18951 10.7479 2.31044C11.627 1.43136 12.8193 0.9375 14.0625 0.9375C15.3057 0.9375 16.498 1.43136 17.3771 2.31044C18.2561 3.18951 18.75 4.3818 18.75 5.625V16.789C19.7196 17.6563 20.4321 18.778 20.8037 20.0311C21.2199 21.4348 21.1875 22.9334 20.7111 24.3178C20.2347 25.7022 19.3379 26.9034 18.1461 27.7537C16.9542 28.604 15.5266 29.0611 14.0625 29.0611C12.5984 29.0611 11.1708 28.604 9.97893 27.7537C8.78705 26.9034 7.89034 25.7022 7.41392 24.3178C6.9375 22.9334 6.90513 21.4348 7.32133 20.0311C7.69287 18.778 8.40536 17.6563 9.375 16.789Z" fill="#EBEDF0"/>
<path fill-rule="evenodd" clip-rule="evenodd" d="M14.0625 20.625C13.2858 20.625 12.6562 21.2546 12.6562 22.0312C12.6562 22.8079 13.2858 23.4375 14.0625 23.4375C14.8392 23.4375 15.4688 22.8079 15.4688 22.0312C15.4688 21.2546 14.8392 20.625 14.0625 20.625ZM10.7812 22.0312C10.7812 20.2191 12.2503 18.75 14.0625 18.75C15.8747 18.75 17.3438 20.2191 17.3438 22.0312C17.3438 23.8434 15.8747 25.3125 14.0625 25.3125C12.2503 25.3125 10.7812 23.8434 10.7812 22.0312Z" fill="#EBEDF0"/>
<path fill-rule="evenodd" clip-rule="evenodd" d="M14.0625 9.375C14.5803 9.375 15 9.79473 15 10.3125V19.6875C15 20.2053 14.5803 20.625 14.0625 20.625C13.5447 20.625 13.125 20.2053 13.125 19.6875V10.3125C13.125 9.79473 13.5447 9.375 14.0625 9.375Z" fill="#EBEDF0"/>
</svg>
