<svg width="30" height="30" viewBox="0 0 30 30" fill="none" xmlns="http://www.w3.org/2000/svg">
<path d="M27.5 17.3125C27.3375 17.3125 27.175 17.275 27.025 17.175L23.9 15.3C22.275 14.325 20.25 14.325 18.6125 15.3C16.3875 16.6375 13.625 16.6375 11.4 15.3C9.77501 14.325 7.75001 14.325 6.11251 15.3L2.98751 17.175C2.53751 17.4375 1.96251 17.3 1.70001 16.85C1.43751 16.4125 1.57501 15.825 2.02501 15.5625L5.15001 13.6875C7.37501 12.35 10.1375 12.35 12.3625 13.6875C13.9875 14.6625 16.0125 14.6625 17.65 13.6875C19.875 12.35 22.6375 12.35 24.8625 13.6875L27.9875 15.5625C28.4375 15.825 28.575 16.4 28.3125 16.85C28.125 17.15 27.8125 17.3125 27.5 17.3125Z" fill="#FBFBFC"/>
<path d="M8.75002 8.56251C7.50002 8.56251 6.25001 8.22501 5.13751 7.56251L2.01251 5.68751C1.57501 5.41251 1.42501 4.83751 1.70001 4.40001C1.96251 3.95001 2.53751 3.81251 2.98751 4.07501L6.11251 5.95001C7.73751 6.92501 9.76252 6.92501 11.4 5.95001C13.625 4.61251 16.3875 4.61251 18.6125 5.95001C20.2375 6.92501 22.2625 6.92501 23.9 5.95001L27.025 4.07501C27.475 3.81251 28.05 3.95001 28.3125 4.40001C28.575 4.83751 28.4375 5.42501 27.9875 5.68751L24.8625 7.56251C22.6375 8.90001 19.875 8.90001 17.65 7.56251C16.025 6.58751 14 6.58751 12.3625 7.56251C11.25 8.22501 10 8.56251 8.75002 8.56251Z" fill="#FBFBFC"/>
<path d="M27.5 26.0625C27.3375 26.0625 27.175 26.025 27.025 25.925L23.9 24.05C22.275 23.075 20.25 23.075 18.6125 24.05C16.3875 25.3875 13.625 25.3875 11.4 24.05C9.77501 23.075 7.75001 23.075 6.11251 24.05L2.98751 25.925C2.53751 26.1875 1.96251 26.05 1.70001 25.6C1.43751 25.1625 1.57501 24.575 2.02501 24.3125L5.15001 22.4375C7.37501 21.1 10.1375 21.1 12.3625 22.4375C13.9875 23.4125 16.0125 23.4125 17.65 22.4375C19.875 21.1 22.6375 21.1 24.8625 22.4375L27.9875 24.3125C28.4375 24.575 28.575 25.15 28.3125 25.6C28.125 25.9 27.8125 26.0625 27.5 26.0625Z" fill="#FBFBFC"/>
</svg>
